# xmcd CD database file
#
# Track frame offsets:
#	150
#	32137
#	54232
#	97045
#	119435
#	170924
#
# Disc length: 2644 seconds
#
# Revision: 1
# Processed by: cddbd v1.5.1PL2 Copyright (c) Steve Scherf et al.
# Submitted via: CDex 1.51
#
DISCID=4f0a5206
DTITLE=Buddy DeFranco - Buddy DeFranco and the Oscar Peterson Quartet
DYEAR=2005
DGENRE=Jazz
TTITLE0=Sweet And Lovely
TTITLE1=Fascinatin' Rhythm
TTITLE2=Love For Sale
TTITLE3=Easy to Love
TTITLE4=Pick Yourself Up
TTITLE5=They Can't Take That Away From Me
EXTD=YEAR: 2005
EXTT0=
EXTT1=
EXTT2=
EXTT3=
EXTT4=
EXTT5=
PLAYORDER=
